# xmcd
#
# Track frame offsets: 
#        150
#        10881
#        21344
#        29591
#        38823
#        51477
#        61422
#        70058
#        79806
#        87704
#        94838
#        104372
#        114467
#        122294
#        136092
#        145979
#        155644
#        165638
#        176240
#        186737
#        196060
#        206441
#        213418
#        221843
#        232401
#
# Disc length: 3212 seconds
#
# Revision: 0
# Processed by: cddbd v1.5.2PL0 Copyright (c) Steve Scherf et al.
# Submitted via: ExactAudioCopy v1.1
#
DISCID=7c0c8a19
DTITLE=Various Artist - Bluegrass Power Picks_25 Traditional Classics
DYEAR=2012
DGENRE=Bluegrass
TTITLE0=Earl Taylor - Foggy Mountain Top
TTITLE1=Hylo Brown - Lonesome Road Blues
TTITLE2=Red Smiley - Ain't Nobody Gonna Miss Me When I'm Gone
TTITLE3=Don Reno - Molly and Tenbrooks 
TTITLE4=Jim Greer - The Girl I Left In Sunny Tennessee 
TTITLE5=Earl Taylor - Wreck Of The Old 97
TTITLE6=Red Smiley - Little Maggie
TTITLE7=Hylo Brown - Weeping Willow
TTITLE8=Red White - Fly Around My Pretty Little Miss
TTITLE9=Jim Greer - The Tie That Binds
TTITLE10=Earl Taylor - Pretty Polly
TTITLE11=Don Reno - Footprint In The Snow
TTITLE12=Red Smiley - Roll On Buddy
TTITLE13=Hylo Brown - Little John Henry
TTITLE14=Red White - Salty Dog Blues
TTITLE15=Earl Taylor - Two Dollar Bill
TTITLE16=J.E. Mainer - Cumberland Gap 
TTITLE17=Don Reno - I'm A Man Of Constant Sorrow
TTITLE18=Hylo Brown - Preacher and The Bear
TTITLE19=Red Smiley - Take This Hammer
TTITLE20=Log Cabin Boys - Cotton Eyed Joe
TTITLE21=Earl Taylor - Cripple Creek
TTITLE22=Jim Greer - My Home's Across The Blue Ridge Mountains
TTITLE23=Mac Martin - Katie Kline
TTITLE24=Red Smiley - Little Birdie
EXTD=
EXTT0=
EXTT1=
EXTT2=
EXTT3=
EXTT4=
EXTT5=
EXTT6=
EXTT7=
EXTT8=
EXTT9=
EXTT10=
EXTT11=
EXTT12=
EXTT13=
EXTT14=
EXTT15=
EXTT16=
EXTT17=
EXTT18=
EXTT19=
EXTT20=
EXTT21=
EXTT22=
EXTT23=
EXTT24=
PLAYORDER=
